PathFileType	4	(X/Y/Z)	./resultDataOpenSim/trcMotMarkerGrf/sub06/qtm-12-06.trc
DataRate	CameraRate	NumFrames	NumMarkers	Units	OrigDataRate	OrigDataStartFrame	OrigNumFrames
250.000000	250.000000	6	24	m	250.000000	404	538
Frame#	Time	L.Toe.Tip			R.Toe.Tip			L.Ankle.Lat			R.Ankle.Lat			L.Ankle.Med			R.Ankle.Med			L.Heel			R.Heel			L.Knee.Lat			R.Knee.Lat			L.Knee.Med			R.Knee.Med			L.Thigh.Upper			R.Thigh.Upper			L.ASIS			R.ASIS			V.Sacral			L.Acromium			R.Acromium			C7			L.Elbow			R.Elbow			L.Wrist.Lat			R.Wrist.Lat
		X1	Y1	Z1	X2	Y2	Z2	X3	Y3	Z3	X4	Y4	Z4	X5	Y5	Z5	X6	Y6	Z6	X7	Y7	Z7	X8	Y8	Z8	X9	Y9	Z9	X10	Y10	Z10	X11	Y11	Z11	X12	Y12	Z12	X13	Y13	Z13	X14	Y14	Z14	X15	Y15	Z15	X16	Y16	Z16	X17	Y17	Z17	X18	Y18	Z18	X19	Y19	Z19	X20	Y20	Z20	X21	Y21	Z21	X22	Y22	Z22	X23	Y23	Z23	X24	Y24	Z24

404	1.612	1.5901454	0.12996304	-0.076100806	0.92938914	0.035334878	0.02662372	1.4618437	0.10849516	-0.095988652	0.80633583	0.092902307	0.053785084	1.4592858	0.12572109	-0.012917709	0.83653048	0.11606967	-0.02924981	1.4108813	0.050022371	-0.047758295	0.75111011	0.093815181	-0.0072166781	1.3458048	0.45704675	-0.10212921	0.99647718	0.437466	0.10687877	1.3188557	0.44628631	0.019838196	0.98401661	0.44076421	-0.025269844	1.1751194	0.80594021	-0.1598953	1.0731149	0.79124793	0.17070817	1.2294909	0.85537228	-0.098781835	1.1861018	0.84578498	0.14492885	1.0212254	0.91988004	-0.0044031772	1.1245326	1.3316016	-0.17048908	1.1360361	1.3235905	0.18835848	1.049966	1.3606172	0.012286765	1.0015955	1.0490697	-0.21281694	1.2178965	1.0125358	0.27715846	1.0338634	0.8220749	-0.29445691	1.4338902	1.0934906	0.17163739
405	1.616	1.5969029	0.13056607	-0.074822575	0.92958574	0.035404701	0.026665081	1.4689041	0.10790509	-0.093615568	0.80754428	0.094236558	0.054475047	1.4662769	0.1252897	-0.010521579	0.83765257	0.11712324	-0.028689581	1.418418	0.049035816	-0.044880072	0.75208793	0.095877401	-0.0064748876	1.3519711	0.4561335	-0.10091103	1.0012787	0.4368585	0.10714156	1.3246734	0.44591722	0.021049208	0.98873399	0.44023951	-0.024950016	1.1818641	0.80485699	-0.16009684	1.0786429	0.79023488	0.17007533	1.2361497	0.85425558	-0.098850991	1.1924109	0.8446216	0.14480091	1.0281907	0.91883064	-0.0047308579	1.130867	1.3303951	-0.17094132	1.1418143	1.3224747	0.18813505	1.0557931	1.3597259	0.011727946	1.0074982	1.0482203	-0.21276616	1.2244224	1.0115763	0.276761	1.0381449	0.82117695	-0.29477665	1.439815	1.0932322	0.17060751
406	1.62	1.603091	0.1306008	-0.073335941	0.92978686	0.03545772	0.02670947	1.4754399	0.10703905	-0.091265741	0.80878702	0.095600069	0.055184181	1.4726608	0.12456885	-0.0081518749	0.8388642	0.11822998	-0.028110096	1.4252025	0.047904718	-0.042153633	0.75316009	0.098034156	-0.0057330423	1.3581479	0.4552614	-0.099741909	1.0061904	0.43624008	0.10741973	1.3317032	0.44582668	0.022511993	0.99361286	0.43968631	-0.024603492	1.1886349	0.80387916	-0.16030543	1.0840095	0.78932768	0.16946548	1.2428502	0.85313335	-0.098911413	1.1987838	0.84348081	0.14474461	1.0351764	0.91779499	-0.0049210238	1.1372393	1.3291988	-0.17142706	1.1476202	1.3213745	0.18788624	1.0616797	1.3588188	0.011132197	1.0134639	1.0473605	-0.21274769	1.2308358	1.0106019	0.27634443	1.042607	0.82025991	-0.29505104	1.4457283	1.0928137	0.16962672
407	1.624	1.6087488	0.1299631	-0.071507081	0.92999775	0.035494138	0.026753536	1.4814963	0.10588593	-0.088981528	0.81007195	0.097005081	0.055881704	1.4784408	0.12354907	-0.0058578763	0.84017525	0.11938787	-0.027512305	1.4312588	0.046638855	-0.039631991	0.75433713	0.10028116	-0.0049950968	1.364337	0.45440882	-0.098614768	1.0112024	0.43560353	0.10769957	1.3406068	0.44609941	0.024380463	0.99865529	0.43910487	-0.024232849	1.1954343	0.8029968	-0.1605121	1.08965	0.78852005	0.1688989	1.2495977	0.85201309	-0.098960533	1.2052159	0.84236032	0.14471683	1.0420292	0.91677225	-0.0050550199	1.1436546	1.3280113	-0.17193692	1.1534569	1.3202913	0.18760524	1.0676691	1.3578598	0.010527335	1.0194928	1.0464869	-0.21276143	1.2371628	1.0096112	0.27591531	1.0472478	0.81932435	-0.2952766	1.4516249	1.092244	0.16869122
408	1.628	1.6139084	0.12868912	-0.069350858	0.93022453	0.035518757	0.026794376	1.4871039	0.10445243	-0.086797693	0.81140019	0.098466838	0.056550023	1.4836417	0.12223157	-0.0036692296	0.84159229	0.12059963	-0.026897037	1.4366107	0.045229902	-0.037369121	0.75563179	0.10262001	-0.0042607676	1.3705474	0.45356867	-0.097520253	1.0163272	0.43494089	0.10796854	1.350703	0.44658324	0.026461269	1.0038602	0.43849179	-0.023844382	1.2022628	0.80220238	-0.1607068	1.09646	0.78762739	0.16830486	1.2563889	0.85090327	-0.098997647	1.2116997	0.84125125	0.14470104	1.0487773	0.91576242	-0.0051838388	1.15012	1.3268348	-0.17246644	1.1593245	1.3192309	0.18729328	1.0737424	1.3568635	0.0099134782	1.0255786	1.0455973	-0.21280573	1.2434513	1.0085881	0.2754971	1.05207	0.81837161	-0.29545672	1.4574916	1.0915273	0.16779806
409	1.632	1.6185951	0.12686861	-0.066931406	0.93046884	0.035528452	0.026817369	1.4922566	0.10276215	-0.084721306	0.81274241	0.099985627	0.057190525	1.4882918	0.12062211	-0.0015923955	0.84311894	0.12186908	-0.026263333	1.4412856	0.043657021	-0.035396156	0.75705603	0.10505756	-0.0035245433	1.3767906	0.45274556	-0.096449304	1.0215979	0.43424683	0.10823824	1.3601767	0.44693804	0.028276129	1.0092263	0.43783972	-0.023444514	1.2091214	0.8014878	-0.16087719	1.1047174	0.78649315	0.16764478	1.2632208	0.84981019	-0.099020118	1.2182267	0.84014156	0.14472453	1.0554962	0.91478128	-0.0053790628	1.1566399	1.3256715	-0.17301877	1.1652284	1.3181956	0.18694791	1.0798629	1.3558551	0.009279697	1.0317158	1.0446965	-0.21288374	1.2497308	1.0075057	0.27510621	1.0570846	0.81740415	-0.2955998	1.4633182	1.0906624	0.16694363
